<?xml version="1.0" encoding="utf-8"?>
<!-- Generator: Adobe Illustrator 16.0.0, SVG Export Plug-In . SVG Version: 6.00 Build 0)  -->
<!DOCTYPE svg PUBLIC "-//W3C//DTD SVG 1.1//EN" "http://www.w3.org/Graphics/SVG/1.1/DTD/svg11.dtd">
<svg version="1.1" id="Layer_1" xmlns="http://www.w3.org/2000/svg" xmlns:xlink="http://www.w3.org/1999/xlink" x="0px" y="0px"
	 width="795px" height="230px" viewBox="0 0 795 230" enable-background="new 0 0 795 230" xml:space="preserve">
<g>
	<g>
		<path fill-rule="evenodd" clip-rule="evenodd" fill="#FEFEFE" d="M118.614,0.859c225.29,0,450.581,0.012,675.871-0.104
			c3.639-0.001,4.102,0.925,4.097,4.259c-0.112,74.476-0.112,148.952,0.003,223.427c0.004,3.167-0.732,3.707-3.767,3.706
			c-263.387-0.083-526.774-0.085-790.163,0.014c-3.384,0.002-3.873-0.94-3.869-4.03C0.88,153.513,0.883,78.893,0.774,4.273
			C0.77,1.284,1.427,0.769,4.32,0.778c35.519,0.125,71.039,0.081,106.558,0.081c0.139,0.638-0.082,1.188-0.664,1.397
			c-5.461,1.958-9.876,5.772-14.941,8.395c-6.471,3.35-13.363,4.679-20.775,3.71c-10.205-1.333-19.705,1.313-24.524,12.786
			c-4.314,10.27-11.789,17.268-21.83,22.018c-10.883,5.149-13.363,11.158-12.002,23.28c1.072,9.542-1.405,18.554-7.362,26.236
			c-5.406,6.971-7.52,14.361-4.369,22.861c0.305,4.183,3.133,7.113,5.203,10.41c1.417,2.258,2.97,4.432,4.364,6.711
			c2.193,3.859,3.022,7.992,2.327,12.376c-0.979,6.18-0.816,12.23,1.759,18.05c1.245,6.381,5.7,10.264,11.116,12.716
			c6.619,2.995,12.561,6.646,17.167,12.311c0.251,0.308,0.461,0.645,0.643,0.997c0.749,2.171,1.664,4.265,2.973,6.171
			c0.196,0.338,0.349,0.694,0.471,1.063c2.439,6.09,6.9,10.258,12.586,13.272c4.105,1.727,8.256,2.425,12.778,1.823
			c6.064-0.807,12.155-0.582,17.999,1.644c0.828,0.25,1.602,0.626,2.34,1.07c2.542,1.816,4.765,4.11,7.773,5.249
			c0.365,0.167,0.707,0.371,1.037,0.599c5.798,3.548,11.752,5.829,18.436,2.322c0.515-0.297,1.07-0.484,1.645-0.617
			c1.312-0.232,2.534-0.677,3.571-1.552c2.444-1.591,4.381-3.878,7.058-5.152c2.006-0.344,3.678-1.432,5.391-2.438
			c0.393-0.165,0.796-0.285,1.212-0.376c5.917-1.491,11.967-1.194,17.936-0.903c11.4,0.555,19.466-5.193,23.485-14.741
			c4.699-11.162,12.867-17.412,23.173-22.034c0.389-0.174,0.749-0.416,1.134-0.598c2.875-1.105,4.943-3.053,6.13-5.916
			c0.485-1.173,1.131-2.25,1.877-3.271c1.861-4.278,2.532-8.628,1.486-13.283c-0.887-3.947-0.155-7.91,0.662-11.816
			c0.069-0.428,0.185-0.848,0.323-1.258c0.663-1.754,1.305-3.516,1.468-5.41c0.3-1.867,1.173-3.504,2.336-4.923
			c3.628-4.424,6.215-9.377,7.858-14.838c1.136-1.563,1.07-3.12-0.044-4.673c-1.653-5.945-4.341-11.371-7.974-16.354
			c-1.178-1.616-1.971-3.453-2.313-5.455c-2.042-7.159-2.79-14.277-2.031-21.855c0.764-7.626-2.77-14.073-9.793-18.051
			c-4.814-2.723-10.239-4.381-14.43-8.208c-4.447-5.001-8.272-10.364-11.05-16.543c-1.799-4.003-4.507-7.58-8.905-9.318
			c-6.228-4.162-12.873-5.292-20.346-4.042c-7.849,1.314-15.239-0.569-21.743-5.523c-3.393-2.584-7.022-4.863-11.091-6.336
			C119.527,2.521,118.42,2.232,118.614,0.859z"/>
		<path fill-rule="evenodd" clip-rule="evenodd" fill="#CF613C" d="M3.479,121.954c-3.433-8.561-1.517-16.115,3.927-23.278
			c6.235-8.204,8.709-17.52,7.458-27.85c-1.406-11.596,2.238-17.943,13.021-22.797c9.698-4.366,16.69-11.258,21.01-21.029
			C53.59,16.383,60.8,11.848,72.4,13.125c10.997,1.209,20.703-0.975,29.332-7.929c2.683-2.162,6.027-3.036,9.146-4.336
			c2.579,0,5.157,0,7.736,0c5.239,1.871,9.96,4.624,14.409,7.974c6.149,4.63,13.284,6.19,20.713,4.757
			c7.661-1.478,14.409-0.271,20.513,4.558c2.829,1.413,4.577,3.949,5.735,6.625c3.276,7.572,8.333,13.755,14.152,19.426
			c4.092,3.31,9.331,4.527,13.624,7.47c2.719,1.289,4.225,3.685,5.637,6.171c1.734,3.894,2.234,8.013,1.661,12.165
			c-1.332,9.654,1.167,18.355,6.127,26.52c2.362,3.708,5.058,7.242,6.109,11.641c0.73,1.953,0.795,3.988,0.767,6.036
			c-0.264,5.996-3.283,10.787-6.831,15.302c-4.483,5.703-6.145,12.376-6.893,19.384c-0.151,1.421,0.026,2.837,0.484,4.206
			c0.295,1.343,0.359,2.705,0.357,4.073c0.419,10.555-4.543,17.844-14.004,21.921c-9.438,4.065-15.958,10.635-20.021,20.072
			c-4.403,10.225-14.71,16.757-27.65,14.547c-7.997-1.366-15.724,0.537-22.176,5.802c-6.309,5.146-13.328,7.608-21.466,6.719
			c-4.138-0.58-7.325-3.053-10.47-5.476c-7.601-5.855-15.928-8.525-25.563-6.711c-5.982,1.127-11.569-0.495-16.884-3.214
			c-3.585-1.985-5.645-5.176-7.011-8.912l0.015,0.033c-1.598-2.095-2.618-4.475-3.43-6.956l0.045,0.049
			c-5.041-7.576-11.666-13.179-20.184-16.563c-4.115-1.634-7.216-4.524-9.048-8.646c-2.815-5.229-3.479-10.849-2.515-16.587
			c0.875-5.199,0.307-10.094-1.855-14.853c-1.653-3.937-4.173-7.354-6.584-10.826C5.157,125.808,4.17,123.968,3.479,121.954z"/>
		<path fill-rule="evenodd" clip-rule="evenodd" d="M643.282,65.712c6.11-3.884,11.813-4.736,17.796-3.794
			c8.298,1.306,13.509,7.512,13.605,16.184c0.116,10.303-3.204,19.998-5.414,29.887c-0.498,2.229-1.147,4.455-1.338,6.714
			c-0.169,2.012-0.987,4.671,1.639,5.655c2.723,1.021,5.415,0.271,7.385-2.013c1.884-2.184,3.017-4.825,4.183-7.441
			c0.389-0.872,0.411-2.529,1.433-2.442c4.887,0.415,4.092-3.542,4.646-6.077c4.515-20.665,8.944-41.349,13.203-62.067
			c0.619-3.012,1.605-4.318,4.848-4.479c4.555-0.226,9.085-1.087,13.61-1.781c7.188-1.102,7.732-0.474,6.188,6.767
			c-5.156,24.181-10.271,48.373-15.355,72.569c-0.482,2.296-1.849,5.227,0.667,6.724c2.831,1.686,5.837,0.425,8.262-1.717
			c1.844-1.629,3.235-3.593,4.298-5.827c0.948-1.992,0.764-4.957,4.5-4.592c1.159,0.113,1.16-2.042,1.422-3.265
			c2.83-13.279,5.738-26.543,8.399-39.856c0.479-2.4,1.394-2.985,3.634-2.922c5.01,0.14,10.026,0.042,15.04,0.044
			c5.857,0.003,6.542,0.864,5.347,6.499c-3.171,14.96-6.323,29.925-9.468,44.891c-0.526,2.503-1.549,5.752,1.172,6.964
			c3.235,1.44,5.581-1.234,7.23-3.895c4.274-6.893,4.586-14.954,6.374-22.557c2.257-9.597,4.186-19.273,6.078-28.951
			c0.446-2.285,1.313-3.067,3.644-3.003c5.727,0.158,11.459,0.053,17.188,0.051c3.114-0.001,4.436,1.41,3.765,4.577
			c-5.919,27.964-11.663,55.967-17.787,83.886c-3.182,14.507-13.185,23.089-25.933,23.181c-9.178,0.066-16.797-4.443-19.409-11.489
			c-2.771-7.473,0.159-16.162,7.405-21.974c0.429-0.344,0.838-0.714,1.693-1.445c-4.085-0.494-7.51-1.513-10.473-3.78
			c-3.131-2.396-4.587-5.759-5.866-10.02c-5.646,7.528-12.535,12.501-21.694,13.435c-10.721,1.093-16.085-2.256-20.395-12.699
			c-1.45,1.783-2.736,3.51-4.171,5.105c-6.453,7.183-16.267,9.822-25.037,6.793c-8.346-2.883-12.482-10.137-11.434-19.742
			c0.95-8.705,3.537-17.065,5.186-25.621c0.54-2.802,0.977-5.647,1.138-8.491c0.11-1.955,0.031-4.251-2.345-5.023
			c-2.207-0.718-3.854,0.677-5.204,2.211c-2.694,3.067-4.358,6.671-5.21,10.659c-3.073,14.396-6.218,28.777-9.16,43.2
			c-0.461,2.261-1.175,3.094-3.525,3.025c-5.582-0.162-11.175-0.152-16.759-0.018c-3.818,0.093-4.787-1.69-4.008-5.096
			c0.655-2.868,1.206-5.76,1.451-8.942c-8.132,7.742-17.015,13.761-28.406,14.647c-14.022,1.092-21.906-2.802-27.004-13.284
			c-1.496,1.849-2.86,3.612-4.306,5.308c-6.437,7.55-14.777,9.648-24.057,7.497c-9.231-2.14-13.835-9.944-12.743-20.012
			c0.943-8.707,3.553-17.064,5.167-25.625c0.58-3.08,0.968-6.218,1.128-9.346c0.085-1.662-0.247-3.56-2.241-4.233
			c-1.867-0.63-3.394,0.335-4.626,1.564c-3.123,3.118-4.921,6.982-5.838,11.255c-3.059,14.253-6.192,28.492-9.035,42.789
			c-0.581,2.921-1.711,3.646-4.471,3.504c-4.428-0.228-8.878-0.061-13.318-0.061c-6.973,0-6.973-0.001-6.643-7.386
			c-5.72,4.762-11.609,8.076-18.968,8.238c-7.687,0.169-13.269-2.649-16.338-10.245c-5.821,6.601-12.403,10.617-21.131,10.199
			c-8.752-0.419-14.698-5.787-15.933-14.427c-1.104-7.729,0.967-15.053,2.546-22.458c2.622-12.301,5.277-24.596,7.732-36.93
			c0.432-2.17,1.2-2.823,3.319-2.771c5.154,0.129,10.313,0.039,15.47,0.043c5.63,0.004,6.353,0.983,5.151,6.647
			c-3.143,14.821-6.271,29.643-9.342,44.479c-0.53,2.565-1.936,6.034,1.181,7.277c3.443,1.372,5.729-1.613,7.436-4.392
			c1.737-2.831,2.74-5.966,3.426-9.195c2.91-13.701,5.926-27.381,8.584-41.132c0.608-3.147,1.807-3.885,4.758-3.752
			c5.29,0.236,10.599,0.09,15.898,0.058c3.346-0.02,4.599,1.326,3.855,4.792c-3.413,15.931-6.696,31.891-10.017,47.843
			c-0.407,1.955-1.248,4.352,0.813,5.521c2.364,1.342,5.063,0.809,7.236-0.979c2.531-2.081,3.603-5.067,4.751-8.013
			c0.381-0.977,0.105-2.867,1.527-2.748c3.963,0.333,3.695-2.512,4.213-4.94c2.738-12.86,5.601-25.695,8.194-38.583
			c0.481-2.393,1.385-2.989,3.631-2.928c5.153,0.14,10.313,0.058,15.47,0.037c2.137-0.009,4.325-0.366,5.418,2.264
			c0.813,1.957,1.975,0.352,2.721-0.057c5.028-2.753,10.398-3.168,15.848-2.146c7.938,1.489,12.826,7.589,12.95,15.87
			c0.156,10.452-3.215,20.281-5.479,30.306c-0.533,2.365-1.071,4.749-1.314,7.153c-0.179,1.771-0.624,3.938,1.494,4.955
			c1.923,0.922,3.973,0.464,5.761-0.541c0.956-0.536,1.961-1.367,2.434-2.319c2.741-5.519,6.544-10.4,7.67-16.856
			c1.787-10.242,5.782-19.826,12.852-27.657c9.011-9.983,20.177-14.412,33.597-11.028c9.438,2.379,13.739,13.158,8.952,21.653
			c-2.795,4.961-8.896,6.254-13.77,3.038c-1.362-0.898-1.502-1.688-0.905-3.158c1.082-2.667,1.565-5.495,1.295-8.407
			c-0.27-2.906-1.718-3.428-4.03-1.923c-1.959,1.274-3.349,3.128-4.53,5.095c-6.883,11.461-10.008,23.924-9.629,37.25
			c0.143,5.024,2.716,7.203,8.157,7.195c6.771-0.01,12.317-2.813,17.456-7.136c3.064-2.579,4.724-6.935,9.375-7.687
			c0.488-0.08,0.858-1.686,1.061-2.63c4.631-21.663,9.271-43.323,13.785-65.01c0.563-2.702,1.327-4.124,4.499-4.336
			c5.408-0.361,10.766-1.471,16.155-2.187c4.067-0.539,5.201,0.669,4.372,4.737C647.2,47.21,645.321,55.989,643.282,65.712z"/>
		<path fill-rule="evenodd" clip-rule="evenodd" d="M279.345,41.433c-12.468,6.822-18.666,21.869-14.293,35.151
			c1.082,3.286-0.235,4.164-3.112,4.245c-11.255,0.316-17.612-8.411-14.935-20.591c1.833-8.341,6.682-14.811,13.125-20.094
			c15.057-12.346,32.358-16.728,51.412-13.266c10.056,1.827,17.887,7.327,20.598,17.722c2.657,10.184-0.853,18.844-8.304,26.028
			c-0.614,0.591-1.25,1.158-2.078,1.923c11.664,5.74,14.475,15.772,13.609,27.508c-0.993,13.456-5.135,25.515-16.133,34.235
			c-7.142,5.663-15.396,6.674-23.977,4.57c-5.487-1.345-8.813-5.09-9.232-11.466c-0.39,0.582-0.58,0.8-0.692,1.052
			c-0.116,0.257-0.153,0.55-0.229,0.826c-2.252,8.15-2.252,8.15-10.967,8.15c-3.151,0-6.301,0.01-9.452-0.002
			c-4.934-0.02-5.887-1.163-4.885-5.863c2.532-11.878,5.071-23.754,7.61-35.631c3.704-17.326,7.408-34.653,11.132-51.975
			c0.146-0.682,0.506-1.317,0.767-1.975c6.206-2.483,12.847-2.612,19.341-3.394c4.337-0.522,6.158,1.81,5.402,6.457
			c-1.079,6.63-2.691,13.158-4.034,19.738c-0.246,1.204-1.129,2.733,0.034,3.626c1.409,1.08,2.694-0.336,3.781-1.108
			c5.268-3.747,8.453-8.918,9.409-15.259c1.06-7.023-2.783-12.237-9.689-13.944c-6.541-1.616-12.759-0.245-18.903,1.838
			C282.897,40.527,281.278,41.51,279.345,41.433z"/>
		<path fill-rule="evenodd" clip-rule="evenodd" d="M373.865,67.892c4.336-3.458,8.235-5.514,12.812-5.817
			c4.957-0.329,8.984,1.353,11.51,5.875c2.63,4.711,2.163,9.411-0.46,13.859c-2.397,4.064-6.134,5.701-10.908,5.284
			c-3.914-0.342-6.165-2.602-6.731-6.091c-0.638-3.927-2.513-3.438-5.032-2.151c-3.124,1.594-4.75,4.047-5.46,7.598
			c-3.196,15.966-6.743,31.861-9.917,47.831c-0.58,2.918-1.707,3.62-4.463,3.503c-5.145-0.219-10.305-0.041-15.459-0.069
			c-4.5-0.025-5.364-1.018-4.441-5.397c4.358-20.686,8.734-41.368,13.167-62.039c1.781-8.31,1.854-8.294,10.383-8.294
			c3.293,0,6.597,0.172,9.875-0.044C372.613,61.683,374.895,62.779,373.865,67.892z"/>
		<path fill-rule="evenodd" clip-rule="evenodd" fill="#010101" d="M507.771,192.813c-2.802,6.425-5.223,12.066-7.733,17.667
			c-0.533,1.189-0.673,2.838-2.748,2.721c-1.79-0.101-1.881-1.464-2.375-2.582c-5.254-11.883-10.517-23.761-15.721-35.665
			c-0.385-0.88-1.71-2.109-0.32-2.863c1.58-0.859,2.479,0.334,3.137,1.847c4.555,10.474,9.182,20.917,13.788,31.369
			c0.447,1.016,0.91,2.024,1.645,3.657c2.89-6.632,5.526-12.769,8.249-18.865c0.648-1.45-0.189-2.503-0.661-3.625
			c-1.659-3.946-3.45-7.839-5.125-11.78c-0.372-0.876-1.603-2.045,0.121-2.722c1.262-0.494,2.11,0.317,2.615,1.523
			c1.545,3.685,3.125,7.354,4.774,11.225c3.889-3.618,2.814-10.681,8.079-13.043c0.37,0.253,0.74,0.507,1.11,0.761
			c-1.81,4.177-3.439,8.447-5.493,12.501c-1.415,2.794-1.56,5.155-0.119,8.024c2.494,4.973,4.561,10.161,7.116,15.962
			c1.873-4.149,3.566-7.829,5.201-11.535c3.343-7.574,6.674-15.153,9.963-22.751c0.771-1.782,1.383-3.602,4.25-2.245
			c-5.272,12-10.54,23.988-15.807,35.978c-0.344,0.783-0.612,1.61-1.035,2.349c-0.587,1.023-0.605,2.479-2.462,2.496
			c-1.811,0.017-2.033-1.266-2.528-2.381C513.159,205.115,510.654,199.381,507.771,192.813z"/>
		<path fill-rule="evenodd" clip-rule="evenodd" fill="#FDFDFD" d="M279.345,41.433c7.75-4.888,16.174-6.306,25.044-4.368
			c6.847,1.495,10.336,6.372,10.188,13.393c-0.202,9.555-8.28,19.362-16.96,20.1c1.802-8.578,3.566-17.042,5.363-25.498
			c1.038-4.882,0.018-5.993-4.976-5.371c-6.23,0.777-12.465,1.528-18.697,2.291C279.32,41.798,279.333,41.615,279.345,41.433z"/>
		<path fill-rule="evenodd" clip-rule="evenodd" fill="#010101" d="M262.855,192.196c0-5.574,0.21-11.158-0.082-16.716
			c-0.167-3.169,0.94-3.794,3.828-3.644c4.703,0.245,9.433,0.205,14.142,0.026c4.641-0.176,8.152,1.477,9.963,5.79
			c1.818,4.33,1.855,8.791-1.473,12.421c-1.712,1.867-1.456,2.404,0.4,3.828c3.702,2.841,4.896,8.063,3.312,12.395
			c-1.562,4.271-5.314,6.813-10.301,6.854c-5.573,0.047-11.149-0.096-16.718,0.061c-2.341,0.066-3.21-0.495-3.132-3.013
			C262.983,204.203,262.856,198.197,262.855,192.196z"/>
		<path fill-rule="evenodd" clip-rule="evenodd" fill="#F5F5F5" d="M226.21,108.243c-0.797-4.117-3.574-7.236-5.441-10.815
			c-0.441-2.091-2.678-3.618-1.914-6.088c1.928-1.215,1.256,1.135,2.041,1.489c0.971,4.749,4.701,7.973,6.772,12.141
			c1.51,3.041,2.11,6.335,3.542,9.348c0.655,1.718,0.655,3.437,0,5.156c-1.787,6.057-4.905,11.375-8.834,16.284
			c-0.76,0.949-1,2.313-1.48,3.485c-1.028,1.567-1.077,3.462-1.719,5.157h0c-1.48,5.259-1.725,10.484-0.546,15.909
			c0.863,3.972-1.074,7.769-2.034,11.595c-0.573,0.859-1.146,1.72-1.719,2.579c-1.698,2.313-3.703,4.318-6.017,6.016
			c-4.799,2.897-10.141,4.846-14.507,8.515c-3.195,2.685-5.884,5.698-7.459,9.605c-3.058,7.585-7.465,13.988-15.13,17.643
			c-2.883,1.375-5.809,2.131-9.053,2.105c-6.971-0.058-13.97-0.492-20.893,0.812c0.45-2.943,2.843-2.763,4.865-2.835
			c5.093-0.183,10.193-0.097,15.289-0.054c2.753,0.023,5.345-0.422,7.725-1.838c6.833-3.96,11.416-9.828,14.438-17.031
			c2.918-6.955,8.162-11.589,14.785-14.9c3.066-1.532,6.268-2.826,9.053-4.892c6.95-5.156,8.211-12.462,7.361-20.342
			c-1.123-10.398,1.821-19.509,8.104-27.642c3.769-4.879,5.71-10.212,4.752-16.387C227.914,111.476,227.978,109.472,226.21,108.243z
			"/>
		<path fill-rule="evenodd" clip-rule="evenodd" fill="#020202" d="M597.567,198.931c-3.574,0-7.151,0.093-10.722-0.035
			c-2.132-0.076-2.969,0.594-2.228,2.7c1.661,4.725,4.646,8.321,9.584,9.569c4.409,1.114,8.177-0.633,11.001-4.097
			c1.007-1.236,2.242-2.49,3.387-1.305c1.088,1.126-0.478,2.488-1.366,3.492c-3.592,4.058-10.643,5.55-16.226,3.486
			c-5.913-2.186-9.818-7.976-9.899-14.677c-0.078-6.492,3.438-12.127,8.955-14.347c9.618-3.868,20.433,2.361,21.15,12.078
			c0.176,2.374-0.353,3.334-2.917,3.185C604.725,198.774,601.142,198.93,597.567,198.931z"/>
		<path fill-rule="evenodd" clip-rule="evenodd" fill="#040404" d="M424.455,187.625c3.659-3.129,7.139-5.052,11.51-4.972
			c6.047,0.11,9.304,2.698,10.095,8.77c0.854,6.548,0.288,13.148,0.417,19.725c0.02,1.058,0.001,2.075-1.491,1.998
			c-1.51-0.077-1.318-1.2-1.321-2.179c-0.013-4.865-0.018-9.729-0.014-14.596c0.002-2.451-0.238-4.877-1.188-7.149
			c-1.529-3.656-5.022-5.217-8.777-4.026c-5.663,1.796-9.201,6.551-9.226,12.436c-0.017,4.293,0.025,8.587-0.023,12.879
			c-0.012,1.017,0.537,2.486-1.279,2.617c-1.872,0.136-1.507-1.311-1.509-2.381c-0.016-12.449-0.013-24.899-0.005-37.348
			c0.001-1.106-0.276-2.467,1.575-2.318c1.517,0.121,1.224,1.307,1.229,2.247C424.466,177.862,424.455,182.396,424.455,187.625z"/>
		<path fill-rule="evenodd" clip-rule="evenodd" fill="#030303" d="M644.018,209.456c3.52-7.953,6.788-15.334,10.051-22.718
			c0.402-0.911,0.732-1.858,1.173-2.751c0.565-1.142,1.737-1.161,2.604-0.798c1.146,0.48,0.364,1.388,0.039,2.124
			c-5.631,12.796-11.267,25.589-16.873,38.396c-0.794,1.813-2.161,2.459-4.039,2.533c-0.717,0.028-1.511,0.348-1.843-0.455
			c-0.491-1.193,0.623-1.155,1.308-1.611c3.899-2.608,6.002-10.736,3.998-15.051c-3.542-7.63-7.118-15.243-10.606-22.897
			c-0.426-0.933-2.057-2.217-0.052-3.072c1.563-0.667,2.206,0.707,2.764,1.907c3.125,6.728,6.256,13.45,9.396,20.17
			C642.521,206.486,643.158,207.717,644.018,209.456z"/>
		<path fill-rule="evenodd" clip-rule="evenodd" fill="#050505" d="M342.905,208.891c-2.002,1.715-3.82,3.07-6.026,3.845
			c-9.229,3.244-15.471-0.633-16.072-10.322c-0.345-5.566-0.144-11.167-0.125-16.753c0.003-0.998-0.58-2.522,1.303-2.556
			c2.235-0.038,1.438,1.743,1.459,2.825c0.084,4.152,0.034,8.308,0.035,12.462c0,0.716-0.019,1.434,0.021,2.147
			c0.4,7.164,3.068,10.882,7.804,10.895c6.052,0.016,12.021-5.942,12.104-12.162c0.057-4.296-0.064-8.596,0.061-12.889
			c0.034-1.168-1.007-3.339,1.441-3.218c2.303,0.112,1.263,2.209,1.281,3.397c0.104,6.731,0.05,13.464,0.051,20.196
			c0,1.003,0.132,2.021-0.006,3.003c-0.159,1.129,2.408,2.785-0.37,3.319c-2.208,0.426-2.407-1.441-2.478-3.109
			C343.378,209.732,343.185,209.5,342.905,208.891z"/>
		<path fill-rule="evenodd" clip-rule="evenodd" fill="#040404" d="M358.489,187.668c3.724-3.29,7.562-5.148,12.237-5.006
			c5.472,0.167,8.338,2.286,9.083,7.669c0.962,6.957,0.373,13.988,0.48,20.986c0.014,0.884-0.024,1.731-1.226,1.813
			c-1.417,0.097-1.593-0.774-1.593-1.897c0-5.288,0.064-10.58-0.074-15.865c-0.187-7.141-2.397-10.445-6.813-10.563
			c-5.768-0.155-12.15,5.738-12.286,11.499c-0.111,4.715,0.006,9.435-0.048,14.151c-0.011,1.004,0.578,2.521-1.22,2.65
			c-2.21,0.158-1.545-1.614-1.551-2.728c-0.046-8.147-0.05-16.295,0.004-24.443c0.008-1.094-0.732-2.845,1.475-2.815
			c1.896,0.024,1.158,1.545,1.313,2.536C358.35,186.162,358.383,186.675,358.489,187.668z"/>
		<path fill-rule="evenodd" clip-rule="evenodd" fill="#040404" d="M401.917,213.542c-5.643-0.036-10.811-3.594-13.094-9.551
			c-2.367-6.174-0.932-13.259,3.537-17.464c4.218-3.969,11.416-5.104,16.834-2.75c1.899,0.825,3.502,1.997,4.631,3.681
			c0.537,0.801,2.007,1.765,0.652,2.876c-1.312,1.077-2.21,0.174-3.114-0.999c-2.749-3.563-6.436-5.426-10.892-4.267
			c-4.903,1.277-8.143,4.572-9.414,9.606c-1.502,5.943,1.301,12.33,6.729,15.322c5.01,2.763,9.653,1.722,14.373-3.46
			c0.801-0.879,1.444-1.47,2.424-0.863c1.496,0.929,0.502,2-0.16,2.873C411.478,212.432,407.371,213.661,401.917,213.542z"/>
		<path fill-rule="evenodd" clip-rule="evenodd" fill="#030303" d="M564.599,213.54c-4.361,0.101-7.884-0.783-10.876-3.294
			c-0.734-0.615-1.869-1.226-1.038-2.395c0.95-1.336,1.928-0.552,2.864,0.215c3.916,3.203,8.272,4.384,13.172,2.66
			c2.748-0.966,4.816-2.602,4.693-5.856c-0.113-2.982-2.337-4.061-4.74-4.753c-3.139-0.904-6.336-1.603-9.489-2.461
			c-2.89-0.787-5.405-2.005-5.587-5.558c-0.193-3.778,1.004-6.861,4.74-8.243c5.002-1.852,10.041-1.989,14.789,0.851
			c1.109,0.663,2.888,1.689,1.802,3.177c-0.8,1.096-2.217,0.094-3.301-0.771c-3.58-2.854-7.574-3.043-11.672-1.303
			c-2.315,0.984-3.534,2.931-3.497,5.428c0.037,2.561,1.819,3.704,4.071,4.281c3.165,0.813,6.347,1.56,9.492,2.443
			c3.491,0.979,6.317,2.516,6.281,6.898c-0.036,4.433-2.421,6.808-6.321,8.061C568.069,213.536,566.076,213.692,564.599,213.54z"/>
		<path fill-rule="evenodd" clip-rule="evenodd" fill="#F4F3F3" d="M171.043,214.876c-2.252,2.021-4.978,2.587-7.895,2.584
			c-5.426-0.006-10.852,0.018-16.278-0.012c-1.903-0.01-3.718,0.121-5.049,1.729c-0.285,0.002-0.57,0.003-0.855,0.003
			c-1.554,1.191-3.424,1.751-5.162,2.577c-2.291,1.719-4.582,3.438-6.873,5.157c-1.135,0.596-2.496,0.74-3.441,1.718
			c-0.571,0.001-1.142,0.002-1.713,0.004c-4.307,3.003-8.932,1.729-13.37,0.671c-2.264-0.541-4.501-1.711-6.406-3.253l0,0.001
			c-2.9-1.236-5.13-3.48-7.738-5.155c-0.707-0.018-1.349-0.166-1.719-0.857c-6.427-3.046-13.233-2.231-19.982-1.944
			c-4.414,0.189-8.728-0.087-12.678-2.357c-6.049-2.131-9.202-7.209-12.353-12.254c-0.198-0.316,0.253-1.038,0.402-1.572
			c2.417,2.487,3.502,6.125,6.797,7.852c6.27,4.181,12.927,6.237,20.644,5.032c9.583-1.498,17.801,1.765,25.416,7.715
			c7.318,5.721,17.706,6.683,25.988,1.003c5.545-3.726,10.92-7.77,17.913-8.496c1.553-0.161,3.095-0.415,4.663-0.432
			c5.917-0.064,11.869,1.575,17.755-0.41C169.763,213.958,170.492,214.37,171.043,214.876z"/>
		<path fill-rule="evenodd" clip-rule="evenodd" fill="#121212" d="M304.663,187.01c2.597-2.068,5.309-4.216,9.017-3.955
			c0.776,0.054,1.869-0.325,1.985,0.944c0.08,0.874-0.676,0.994-1.394,1.248c-8.42,2.977-10.115,5.418-10.115,14.389
			c0,3.579,0.051,7.158-0.031,10.736c-0.025,1.094,0.721,2.887-1.499,2.771c-2.131-0.112-1.328-1.874-1.338-2.955
			c-0.068-7.729-0.095-15.462,0.02-23.191c0.02-1.315-1.114-3.583,1.211-3.839C305.542,182.827,303.314,185.88,304.663,187.01z"/>
		<path fill-rule="evenodd" clip-rule="evenodd" fill="#020202" d="M618.785,190.709c0-5.57-0.051-11.141,0.045-16.709
			c0.018-1.036-0.926-2.881,1.283-2.914c2.204-0.034,1.342,1.814,1.349,2.852c0.067,10.425,0.097,20.851,0.012,31.274
			c-0.031,3.801,0.396,6.786,5.415,5.433c0.899-0.242,1.814,0.01,1.922,1.103c0.096,0.974-0.9,0.973-1.508,1.099
			c-5.178,1.073-8.981,0.108-8.584-6.29C619.045,201.292,618.785,195.992,618.785,190.709z"/>
		<path fill-rule="evenodd" clip-rule="evenodd" fill="#F4F3F3" d="M17.332,169.832c3.849,4.744,8.802,7.84,14.375,10.263
			c6.849,2.978,12.198,7.686,14.855,14.946c-2.094-0.811-3.397-2.604-4.752-4.188c-3.47-4.059-8.448-5.443-12.866-7.874
			C23.589,180.032,18.408,176.674,17.332,169.832z"/>
		<path fill-rule="evenodd" clip-rule="evenodd" fill="#242424" d="M545.722,198.338c0,4.146,0.019,8.292-0.013,12.438
			c-0.009,1.055,0.386,2.427-1.473,2.427c-1.844,0-1.507-1.363-1.509-2.43c-0.022-8.437-0.022-16.872,0-25.307
			c0.002-1.067-0.333-2.435,1.512-2.429c1.852,0.006,1.462,1.377,1.47,2.433C545.739,189.759,545.722,194.049,545.722,198.338z"/>
		<path fill-rule="evenodd" clip-rule="evenodd" fill="#F8F7F7" d="M220.896,92.828c-0.575-0.572-1.15-1.145-1.724-1.717
			c-2.264-0.342-2.098-2.371-2.563-3.859c-1.523-4.87-1.316-9.874-1.019-14.891c0.309-5.201-0.026-10.301-3.19-14.769
			c-1.546-1.974-3.092-3.948-4.639-5.922c5.955,2.35,8.909,7.178,10.522,12.998c0.999,3.602,0.936,7.181,0.188,10.957
			C217.306,81.511,219.777,87.126,220.896,92.828z"/>
		<path fill-rule="evenodd" clip-rule="evenodd" fill="#F6F5F5" d="M194.136,44.2c-6.208-3.712-10.291-9.305-13.346-15.646
			c-1.804-3.743-3.922-7.212-6.541-10.406c3.495,0.495,5.39,3.263,6.921,5.792C185.328,30.805,188.798,38.091,194.136,44.2z"/>
		<path fill-rule="evenodd" clip-rule="evenodd" fill="#F7F7F7" d="M61.883,215.741c7.839,2.733,15.967,1.471,23.983,1.691
			c3.166,0.087,6.194,0.376,8.678,2.61c-5.533-1.041-11.063-2.517-16.732-1.661c-3.519,0.531-6.946,0.713-10.411-0.075
			C65.381,217.847,63.12,217.892,61.883,215.741z"/>
		<path fill-rule="evenodd" clip-rule="evenodd" fill="#F7F7F7" d="M216.599,171.903c3.262-8.373-0.751-17.227,1.707-25.647
			c0.189-0.648,0.577-1.238,0.873-1.856c-2.331,7.669,1.33,15.56-0.854,23.233C217.902,169.118,217.778,170.725,216.599,171.903z"/>
		<path fill-rule="evenodd" clip-rule="evenodd" fill="#F6F2F1" d="M3.479,121.954c3.171,5.475,8.237,9.854,9.482,16.438
			C9.438,133.123,4.521,128.657,3.479,121.954z"/>
		<path fill-rule="evenodd" clip-rule="evenodd" fill="#F7F7F7" d="M104,226.055c5.007,2.205,10.013,4.308,15.723,3.485
			c1.392-0.201,2.789-0.195,4.053-0.903c-0.223,2.326-2.355,1.932-3.607,2.11C114.138,231.602,108.531,230.57,104,226.055z"/>
		<path fill-rule="evenodd" clip-rule="evenodd" fill="#2E2E2E" d="M545.759,173.465c-0.082,1.422,0.365,2.947-1.714,2.793
			c-1.748-0.13-1.367-1.481-1.339-2.505c0.032-1.12-0.561-2.718,1.501-2.759C546.358,170.95,545.486,172.654,545.759,173.465z"/>
		<path fill-rule="evenodd" clip-rule="evenodd" d="M458.074,211.082c0.174,1.562-0.236,2.26-1.583,2.054
			c-1.575-0.241-0.895-1.489-0.986-2.338c-0.107-0.992-0.15-2.041,1.409-1.933C458.916,209.005,457.659,210.61,458.074,211.082z"/>
		<path fill-rule="evenodd" clip-rule="evenodd" d="M663.557,210.99c-0.137,0.866,0.414,2.062-1.197,2.171
			c-1.539,0.104-1.531-0.897-1.438-1.914c0.09-0.98-0.569-2.438,1.393-2.381C663.926,208.913,663.443,210.106,663.557,210.99z"/>
		<path fill-rule="evenodd" clip-rule="evenodd" fill="#F7F7F7" d="M96.263,220.9c3.189,0.803,5.286,3.245,7.738,5.155
			C100.521,225.688,98.384,223.307,96.263,220.9z"/>
		<path fill-rule="evenodd" clip-rule="evenodd" fill="#F7F7F7" d="M208.863,180.498c1.661-2.349,3.667-4.355,6.017-6.016
			C213.874,177.487,211.869,179.494,208.863,180.498z"/>
		<path fill-rule="evenodd" clip-rule="evenodd" fill="#F4F3F3" d="M46.518,194.992c1.587,2.1,2.499,4.532,3.429,6.956
			C47.472,200.287,46.538,197.865,46.518,194.992z"/>
		<path fill-rule="evenodd" clip-rule="evenodd" fill="#F5F5F5" d="M135.804,221.758c1.436-1.43,3.191-2.219,5.162-2.577
			C139.806,221.164,137.94,221.731,135.804,221.758z"/>
		<path fill-rule="evenodd" clip-rule="evenodd" fill="#F7F7F7" d="M219.178,144.399c-0.071-1.934,0.046-3.805,1.719-5.157
			C220.822,141.128,220.439,142.91,219.178,144.399z"/>
		<path fill-rule="evenodd" clip-rule="evenodd" fill="#F8F7F7" d="M231.21,119.473c0-1.719,0-3.438,0-5.156
			C232.513,116.035,232.513,117.754,231.21,119.473z"/>
		<path fill-rule="evenodd" clip-rule="evenodd" fill="#F5F5F5" d="M125.49,228.633c0.651-1.565,1.967-1.801,3.441-1.718
			C128.054,228.029,126.854,228.495,125.49,228.633z"/>
		<path fill-rule="evenodd" clip-rule="evenodd" fill="#632928" d="M84.211,95.594c-6.156-13.343-3.971-26.066,2.843-38.455
			c6.808-12.379,24.143-16.077,34.896-4.658c10.048,8.801,13.559,27.765,7.644,40.866c-1.962,4.346-4.46,8.322-7.618,11.87
			c-5.319,5.976-7.436,12.94-7.345,20.904c0.185,16.309,0.034,32.621,0.074,48.933c0.009,3.539-0.604,6.843-2.697,9.745
			c-3.346,4.643-8.082,4.588-11.401-0.091c-1.495-3.791-1.827-7.717-1.709-11.772c0.391-13.437-0.302-26.877,0.545-40.329
			c0.406-6.451-0.088-13.096-3.145-19.145c-1.723-3.965-4.513-7.198-7.284-10.421C87.059,100.767,85.529,98.258,84.211,95.594z"/>
		<path fill-rule="evenodd" clip-rule="evenodd" fill="#632928" d="M157.252,78.19c1.884-6.748,2.044-13.719,2.557-20.631
			c0.265-3.564,0.671-7.065,1.709-10.477c0.948-3.115,2.302-3.828,4.176-0.585c1.239,0.842,1.453,2.219,1.838,3.507
			c1.235,7.958,2.109,15.967,3.121,23.958c0.17,1.344-0.69,3.715,2.108,3.734c1.75-3.638,2.311-7.511,2.468-11.471
			c0.492-4.212-0.266-8.477,0.656-12.689c0.481-2.197,0.221-4.802,2.789-5.743c2.648-0.971,3.35,2.044,5.091,3.001
			c6.423,8.417,7.421,18.096,6.142,28.124c-1.052,8.25-4.09,15.74-9.893,21.96c-6.298,6.75-8.657,14.922-8.604,24.029
			c0.098,16.75,0.013,33.501,0.027,50.25c0.001,1.718,0.065,3.44-0.085,5.152c-0.488,5.566-3.231,8.033-8.942,8.093
			c-3.145-0.482-3.927-3.138-5.037-5.493c-1.402-2.215-1.018-4.707-1.017-7.107c0.007-16.887-0.039-33.775,0.142-50.66
			c0.11-10.25-2.651-19.347-9.08-27.454c-11.91-15.02-9.281-32.469-2.611-47.391c1.582-3.539,4.146-3.236,6.464,0.415
			c1.437,2.017,1.24,4.348,1.166,6.61c-0.191,5.873,0.532,11.675,1.484,17.431C154.172,76.266,153.894,79.268,157.252,78.19z"/>
		<path fill-rule="evenodd" clip-rule="evenodd" fill="#632928" d="M60.257,186.328c-2.169-2.171-2.767-4.814-2.723-7.826
			c0.115-7.86-0.254-15.739,0.137-23.583c0.429-8.6-1.328-16.673-4.033-24.737c-3.121-9.309-6.752-18.446-8.237-28.292
			c-1.751-11.609,0.063-22.683,3.381-33.72c2.827-9.404,7.275-17.991,12.869-25.979c3.237-4.621,4.577-4.488,7.793-0.014
			c4.172,6.031,3.567,13.078,4.058,19.834c1.565,21.552-1.08,43.136,0.153,64.67c0.934,16.304-0.551,32.548-0.125,48.819
			c0.06,2.283,0.092,4.586-0.637,6.801C71.016,188.003,65.304,189.819,60.257,186.328z"/>
		<path fill-rule="evenodd" clip-rule="evenodd" fill="#C25B38" d="M100.607,184.707c2.001,2.025,4.081,3.513,7.179,2.131
			c3.921-1.748,5.458-5.121,5.604-8.924c0.284-7.437,0.089-14.893,0.082-22.34c-0.009-10.169,0.146-20.343-0.092-30.507
			c-0.213-9.043,3.593-16.214,9.275-22.827c11.459-13.338,11.028-30.806,2.278-45.048c-0.973-1.583-1.985-3.142-2.98-4.711
			c5.381,1.752,7.258,6.98,9.173,11.12c5.088,10.998,6.642,22.601,1.182,34.189c-2.014,4.276-4.663,8.17-7.692,11.76
			c-4.502,5.333-6.854,11.319-6.909,18.348c-0.048,6.113-1.299,12.309-0.639,18.315c1.231,11.21-0.782,22.419,0.689,33.573
			c0.535,4.058-1.917,7.047-3.904,10.068c-1.384,2.104-3.837,3.373-6.381,2.466C103.95,191.064,100.636,189.269,100.607,184.707z"/>
		<path fill-rule="evenodd" clip-rule="evenodd" fill="#C25B38" d="M60.257,186.328c0.849,0.125,1.704,0.218,2.545,0.381
			c5.7,1.104,9.188-1.555,9.327-7.349c0.147-6.148-0.059-12.307,0.149-18.451c0.783-23.134-0.63-46.268,0.058-69.395
			c0.254-8.55,0.672-17.049,0.072-25.632C71.85,57.9,71.37,49.965,69.445,42.177c3.845,1.711,4.713,4.887,5.499,8.835
			c1.763,8.87,0.855,17.895,2.326,26.735c0.742,4.457-0.792,8.771-0.787,13.189c0.032,24.46,0.286,48.925-0.154,73.378
			c-0.129,7.176,1.356,14.427-0.567,21.585c-0.915,3.405-2.658,5.579-6.351,5.772C63.655,191.974,61.897,190.947,60.257,186.328z"/>
		<path fill-rule="evenodd" clip-rule="evenodd" fill="#C15A38" d="M161.583,187.332c6.518,0.054,8.608-1.989,8.62-8.641
			c0.032-18.286,0.084-36.572-0.004-54.858c-0.044-9.102,2.72-17.022,8.802-23.854c10.431-11.714,12.15-25.316,8.192-39.98
			c-0.85-3.148-2.269-6.141-3.426-9.206c2.608,0.45,3.703,2.679,4.562,4.615c5,11.279,5.823,22.93,2.485,34.841
			c-1.406,5.38-4.45,9.76-8.112,13.855c-5.612,6.274-8.38,13.52-8.333,22.153c0.075,14.129-0.621,28.264-0.325,42.398
			c0.113,5.409,0.954,10.814-0.061,16.216c-0.9,4.796-3.827,7.185-8.286,6.769C163.093,191.397,161.433,190.219,161.583,187.332z"/>
		<path fill-rule="evenodd" clip-rule="evenodd" fill="#E4E3E3" d="M171.043,214.876c-5.286,0.998-10.451,1.729-15.994,1.048
			c-8.133-0.998-15.852,1.013-22.398,6.471c-1.024,0.854-2.118,2.008-3.721,1.945c-0.309-0.367-0.45-0.791-0.426-1.271
			c2.758-4.88,7.851-6.266,12.518-8.199c1.811-0.751,3.823-1.131,5.846-1.151c6.505-0.29,13.035,1.059,19.511-0.343
			c7.435-2.235,11.8-7.727,14.886-14.394c4.2-9.074,10.643-15.673,19.952-19.566c9.799-4.099,14.119-11.713,12.934-22.095
			c-0.072-1.365-0.145-2.73-0.217-4.096c-0.897-9.797,2.955-17.967,8.663-25.538c2.961-3.928,5.086-8.189,4.452-13.344
			c-0.28-2.034-0.559-4.067-0.838-6.101c3.054,0.363,2.814,3.212,3.104,4.977c1.024,6.222-0.689,11.939-4.782,16.753
			c-5.806,6.832-8.348,14.973-8.56,23.607c-0.11,4.476,0.721,8.926-0.037,13.533c-1.044,6.346-5.103,10.018-10.026,13.09
			c-2.779,1.734-5.93,2.863-8.779,4.498c-5.055,2.898-9.19,6.719-11.539,12.234C182.459,204.293,178.186,210.756,171.043,214.876z"
			/>
		<path fill-rule="evenodd" clip-rule="evenodd" fill="#DDDDDC" d="M214.15,157.321c2.922,11.019-3.192,19.346-12.03,22.911
			c-9.572,3.862-15.883,10.556-20.172,19.615c-3.053,6.448-7.109,11.93-14.342,14.172c-5.477,0.928-10.997,0.148-16.489,0.434
			c-1.668,0.086-3.398-0.445-5.001,0.426c-6.642,1.039-12.56,3.529-17.191,8.592c-5.595,4.146-11.696,5.174-18.313,2.952
			c-0.61-0.205-0.819-0.694-0.625-1.327c8.007,0.95,14.775-1.679,20.958-6.707c6.7-5.45,14.664-6.806,23.038-5.751
			c12.403,1.563,21.336-2.906,26.343-14.293c4.195-9.54,10.654-16.313,20.326-20.267
			C209.822,174.331,214.383,167.318,214.15,157.321z"/>
		<path fill-rule="evenodd" clip-rule="evenodd" fill="#C75D39" d="M161.583,187.332c1.254,2.853,3.348,4.056,6.478,3.426
			c3.266-0.657,4.988-2.863,5.326-5.901c0.361-3.247,0.596-6.612,0.148-9.824c-1.588-11.381-1.321-22.872-0.452-34.16
			c0.658-8.542-1.398-17.425,2.257-25.703c2.033-4.605,3.972-9.204,7.86-12.743c3.625-3.299,5.124-8.081,7.613-12.176
			c0.074,7.008-4.94,11.33-8.881,16.027c-4.134,4.926-6.51,10.342-6.551,16.649c-0.114,17.872-0.034,35.745-0.047,53.617
			c-0.002,2.558-0.07,5.066-0.673,7.631c-1.453,6.182-3.521,8.482-8.31,8.358c-4.667-0.12-8.308-4.021-8.98-9.621
			C159.036,184.137,159.563,186.443,161.583,187.332z"/>
		<path fill-rule="evenodd" clip-rule="evenodd" fill="#E4E3E2" d="M109.987,225.096c6.665,3.56,12.781,0.726,18.938-1.625
			c0.001,0.29,0.003,0.579,0.004,0.869c-6.947,5.378-14.255,4.982-21.881,1.567c-4.824-2.16-8.388-6.262-13.423-8.138
			c-5.91-2.199-11.863-2.415-17.993-1.611c-7.324,0.961-13.668-1.107-18.903-6.392c6.76,3.242,13.739,3.765,21.172,2.71
			c7.873-1.117,14.788,1.997,21.119,6.614C102.393,221.55,105.602,224.433,109.987,225.096z"/>
		<path fill-rule="evenodd" clip-rule="evenodd" fill="#C15A38" d="M157.252,78.19c0.009,1.112-0.429,2.125-1.521,2.287
			c-1.461,0.216-1.841-1.154-2.219-2.185c-1.738-4.752-1.684-9.795-2.096-14.733c-0.355-4.257-0.12-8.563-0.145-12.848
			c4.322,2.27,3.95,6.57,4.23,10.4c0.312,4.246-0.006,8.535,0.144,12.798C155.7,75.419,156.124,76.987,157.252,78.19z"/>
		<path fill-rule="evenodd" clip-rule="evenodd" fill="#EAE9E8" d="M212.399,57.592c4.626,3.627,4.713,8.865,4.482,13.929
			c-0.305,6.699-0.939,13.342,2.291,19.59c-0.392,2.339,1.869,4.007,1.597,6.316c-5.642-7.309-7.748-15.75-7.113-24.75
			C214.021,67.508,214.165,62.513,212.399,57.592z"/>
		<path fill-rule="evenodd" clip-rule="evenodd" fill="#DEDCDB" d="M227.048,114.344c1.671,5.427-0.571,9.96-3.61,14.081
			c-4.237,5.743-7.739,11.699-8.891,18.91c-0.315,1.973-0.345,3.934-0.612,5.889c-1.589-9.1,1.111-17.144,6.397-24.376
			C223.567,124.418,226.496,119.963,227.048,114.344z"/>
		<path fill-rule="evenodd" clip-rule="evenodd" fill="#C85D3A" d="M166.666,49.872c-1.042-0.919-0.694-2.237-0.971-3.375
			c6.009,1.427,5.106,6.83,6.149,10.985c1.205,4.792,0.53,9.9,2.054,14.993c1.321-2.143-0.321-4.536,1.332-6.25
			c0.245,4.38,0.023,8.702-1.617,12.845c-2.282-0.248-1.854-2.201-2.091-3.568c-1.091-6.27-1.621-12.62-2.521-18.918
			C168.656,54.178,168.196,51.847,166.666,49.872z"/>
		<path fill-rule="evenodd" clip-rule="evenodd" fill="#C55C39" d="M84.211,95.594c3.458,4.401,6.947,8.779,10.354,13.219
			c1.026,1.337,1.868,2.833,1.733,4.647C92.18,107.566,85.69,103.275,84.211,95.594z"/>
		<path fill-rule="evenodd" clip-rule="evenodd" fill="#FAFAFA" d="M756.283,142.534c-0.81,4.154-1.215,7.861-3.171,11.075
			c-1.388,2.283-3.258,4.393-6.234,2.732c-3.183-1.775-1.789-4.494-0.542-6.69C748.401,146.01,751.857,144.033,756.283,142.534z"/>
		<path fill-rule="evenodd" clip-rule="evenodd" fill="#FEFEFE" d="M287.771,116.806c2.272-10.608,4.646-21.197,6.739-31.84
			c0.467-2.375,1.513-2.961,3.647-3.107c6.772-0.463,11.128,2.113,12.583,8.374c2.067,8.893,1.302,17.662-2.951,25.848
			c-3.51,6.754-8.856,7.801-14.684,3.033c-1.35-1.104-2.555-1.714-4.229-1.215C288.035,118.014,287.61,117.706,287.771,116.806z"/>
		<path fill-rule="evenodd" clip-rule="evenodd" fill="#393939" d="M287.084,120.258c0,1.188,0,2.374,0,4.701
			c-0.988-2.4-1.339-3.623,0.06-4.639L287.084,120.258z"/>
		<path fill-rule="evenodd" clip-rule="evenodd" fill="#737373" d="M287.771,116.806c0.369,0.364,0.738,0.729,1.107,1.093
			c-0.598,0.787-1.196,1.574-1.793,2.36c0-0.001,0.06,0.062,0.06,0.062C287.133,119.109,286.562,117.799,287.771,116.806z"/>
		<path fill-rule="evenodd" clip-rule="evenodd" fill="#FDFDFD" d="M275.437,211.066c-9.846,0.003-9.846,0.003-9.846-9.976
			c0-7.326,0-7.326,7.355-7.326c3,0,6.001-0.045,9.001,0.01c4.836,0.091,8.526,3.572,8.721,8.15
			c0.197,4.636-3.581,8.819-8.375,9.116C280.016,211.182,277.723,211.065,275.437,211.066z"/>
		<path fill-rule="evenodd" clip-rule="evenodd" fill="#FDFDFD" d="M274.576,173.997c2.002,0,4.004-0.048,6.005,0.011
			c4.873,0.143,8.225,3.556,8.359,8.447c0.125,4.576-3.364,8.878-7.859,9.148c-4.416,0.265-8.864-0.04-13.291,0.115
			c-2.108,0.073-2.256-0.939-2.223-2.581c0.078-3.858,0.187-7.729-0.03-11.576c-0.153-2.71,0.513-3.982,3.469-3.606
			C270.834,174.187,272.717,173.997,274.576,173.997z"/>
		<path fill-rule="evenodd" clip-rule="evenodd" fill="#FDFDFD" d="M584.367,196.827c0.599-6.65,5.048-11.513,10.808-12.025
			c5.516-0.49,11.175,3.8,12.653,9.49c0.409,1.573,0.749,2.617-1.622,2.578C598.935,196.75,591.659,196.827,584.367,196.827z"/>
		<path fill-rule="evenodd" clip-rule="evenodd" fill="#C25A38" d="M166.666,49.872c3.084,0.973,3.135,3.601,3.55,6.177
			c1.236,7.659,1.27,15.496,3.397,23.021c-1.748,2.77-2.979,1.683-3.366-0.702c-1.013-6.25-1.802-12.539-2.604-18.822
			C167.233,56.332,166.986,53.097,166.666,49.872z"/>
		<path fill-rule="evenodd" clip-rule="evenodd" fill="#E4E3E2" d="M146.117,214.879c3.194-1.788,6.648-0.625,9.974-0.809
			c3.828-0.212,7.676-0.05,11.516-0.051c-3.193,1.793-6.648,0.626-9.973,0.811C153.806,215.043,149.957,214.879,146.117,214.879z"/>
	</g>
</g>
</svg>
